<?xml version="1.0" encoding="UTF-8" standalone="no"?>
<svg
   width="26"
   height="23"
   viewBox="0 0 26 23"
   version="1.1"
   id="svg8"
   sodipodi:docname="arrow.svg"
   inkscape:version="1.2.2 (732a01da63, 2022-12-09)"
   xmlns:inkscape="http://www.inkscape.org/namespaces/inkscape"
   xmlns:sodipodi="http://sodipodi.sourceforge.net/DTD/sodipodi-0.dtd"
   xmlns="http://www.w3.org/2000/svg"
   xmlns:svg="http://www.w3.org/2000/svg">
  <defs
     id="defs12" />
  <sodipodi:namedview
     id="namedview10"
     pagecolor="#ffffff"
     bordercolor="#000000"
     borderopacity="0.25"
     inkscape:showpageshadow="2"
     inkscape:pageopacity="0.0"
     inkscape:pagecheckerboard="0"
     inkscape:deskcolor="#d1d1d1"
     showgrid="false"
     inkscape:zoom="34.956522"
     inkscape:cx="8.9110696"
     inkscape:cy="11.5"
     inkscape:window-width="1920"
     inkscape:window-height="991"
     inkscape:window-x="-9"
     inkscape:window-y="-9"
     inkscape:window-maximized="1"
     inkscape:current-layer="svg8" />
  <g
     fill="#E55850"
     fill-rule="evenodd"
     transform="rotate(-180 13 11.5)"
     id="g6">
    <polygon
       points="0 17.026 19.436 17.026 19.436 6.025 0 6.025"
       id="polygon2" />
    <polygon
       points="13.76 0 13.76 23.052 25.112 11.526"
       id="polygon4" />
  </g>
  <path
     style="fill:#f3f3f3;stroke-width:0.0294089;stroke-miterlimit:1.6;fill-opacity:1;stroke:#f3f3f3;stroke-opacity:1"
     d="M 6.5633155,17.211661 0.91145708,11.473059 6.5633155,5.7363359 12.215174,-3.8727251e-4 12.222457,2.9963859 l 0.0073,2.9967733 h 6.879844 6.879844 v 5.4782338 5.478234 H 19.109584 12.22974 l -0.0073,3.000318 -0.0073,3.000317 z"
     id="path864" />
  <path
     style="fill:#f3f3f3;fill-opacity:1;stroke:#f3f3f3;stroke-width:0.0294089;stroke-miterlimit:1.6;stroke-opacity:1"
     d="M 6.5814085,17.207048 C 3.4828374,14.060305 0.9398142,11.485697 0.93024574,11.485697 c -0.009568,0 0.26809576,-0.286428 0.61703166,-0.636505 C 2.0404888,10.354366 11.496881,0.75174213 12.083025,0.15052109 l 0.132149,-0.13554857 -0.01013,2.55283718 c -0.0056,1.4040603 -9.99e-4,2.7491524 0.01016,2.9890933 l 0.02029,0.4362562 h 6.876963 6.876964 v 5.4782338 5.478234 H 19.11242 12.235419 l -0.02023,0.407649 c -0.01113,0.224207 -0.01568,1.569451 -0.01013,2.989431 0.0056,1.41998 0.01011,2.581762 0.01011,2.581737 0,-2.4e-5 -2.5351943,-2.574653 -5.6337655,-5.721396 z"
     id="path1737" />
  <path
     style="fill:#f3f3f3;stroke:#f3f3f3;stroke-width:0.0294089;stroke-miterlimit:1.6"
     d="M 11.967778,22.693079 C 11.847444,22.56721 11.409346,22.121342 10.994226,21.702262 10.579107,21.283182 9.4739245,20.16326 8.5382648,19.213546 7.6026047,18.263832 6.6761493,17.324094 6.479475,17.125238 6.282801,16.926382 5.2792523,15.907618 4.2493673,14.861318 3.219482,13.815019 2.0465744,12.624254 1.6429058,12.215174 0.97186637,11.53514 0.9129173,11.467554 0.95510327,11.426602 0.98048055,11.401966 1.8054828,10.565213 2.7884415,9.5671489 3.7714004,8.569085 5.0080331,7.3148009 5.5365145,6.7798507 6.0649958,6.2449005 6.921299,5.3759639 7.4394103,4.8488806 8.7688306,3.4964388 9.9743504,2.2735739 11.091465,1.1442786 c 0.52918,-0.53495025 0.989778,-1.00803793 1.023549,-1.05130596 0.03377,-0.04326804 0.07357,-0.07866916 0.08843,-0.07866916 0.01679,0 0.02498,0.86979363 0.02161,2.29570892 -0.003,1.2626399 -0.0032,2.6078825 -4.98e-4,2.9894279 l 0.0049,0.6937189 h 6.879975 6.879975 v 5.4782338 5.478234 h -6.879975 -6.879975 l -0.0053,0.693719 c -0.0029,0.381545 -0.0025,1.726788 8.67e-4,2.989427 0.0034,1.26264 -0.0038,2.294236 -0.01611,2.292434 -0.01228,-0.0018 -0.120778,-0.106259 -0.241112,-0.232128 z"
     id="path806" />
</svg>
